<svg width="1024" height="1024" viewBox="0 0 1024 1024" fill="none" xmlns="http://www.w3.org/2000/svg">
  <rect width="1024" height="1024" rx="120" fill="#08131f"/>
  <rect x="120" y="120" width="784" height="784" rx="96" fill="#0e1624"/>

  <path d="M260 384L354 478V546L260 640V584L318 526L318 498L260 440V384Z" fill="#ff6a5b"/>
  <path d="M764 384L670 478V546L764 640V584L706 526V498L764 440V384Z" fill="#67f4ff"/>

  <rect x="382" y="486" width="260" height="40" rx="20" fill="#d9f8ff"/>
  <rect x="382" y="486" width="58" height="40" rx="20" fill="#ff6a5b"/>
  <rect x="584" y="486" width="58" height="40" rx="20" fill="#67f4ff"/>

  <rect x="340" y="330" width="344" height="344" rx="52" fill="none" stroke="#2a394d" stroke-width="8"/>

  <rect x="408" y="760" width="208" height="58" rx="29" fill="#c7443a"/>
  <rect x="450" y="774" width="124" height="30" rx="15" fill="#08131f"/>
</svg>
